<svg xmlns="http://www.w3.org/2000/svg" data-name="Layer 1" viewBox="0 0 512 512" height="512" width="512" version="1.1"><title>Idea</title><path d="m458.32 211.76a195.11 206.28 0 0 0 -28.305 -69.21 14.933 15.789 0 0 1 0.4096 -18.209l23.994-34.157-34.095-34.128-35.413 25.521a14.933 15.789 0 0 1 -16.139 0.512 214.26 226.53 0 0 0 -69.58 -28.42 14.694 15.536 0 0 1 -11.8 -12.494l-7.02-41.174h-48.72l-7.01 41.177a14.453 15.281 0 0 1 -11.73 12.256 220.93 233.58 0 0 0 -69.71 28.57 14.933 15.789 0 0 1 -15.94 -0.406l-35.45-24.957-34.21 34.241 23.998 34.149a14.933 15.789 0 0 1 0.39893 18.283 189.14 199.98 0 0 0 -28.19 69.077 14.78 15.626 0 0 1 -12.083 12.146l-41.724 7.1v46.849l41.739 7.1003a14.628 15.466 0 0 1 11.947 12.071 195.09 206.26 0 0 0 28.305 69.222 14.933 15.789 0 0 1 -0.40747 18.215l-23.983 34.18 34.189 34.243 35.45-24.926a14.933 15.789 0 0 1 16 -0.3045 214.61 226.9 0 0 0 69.585 28.645 15.2 16.07 0 0 1 11.799 12.958l7.02 42.1h48.695l7.0208-42.104a15.475 16.361 0 0 1 11.733 -13.183 220.92 233.57 0 0 0 69.715 -28.582 14.933 15.789 0 0 1 15.949 0.40374l35.443 24.957 34.148-34.193-24.653-34.87a14.933 15.789 0 0 1 -0.42666 -18.321 189.07 199.9 0 0 0 28.19 -69.07 14.771 15.617 0 0 1 12.115 -12.153l42.426-7.1252v-46.833l-41.739-7.0981a14.622 15.459 0 0 1 -11.95 -12.07zm-202.32 206.02a153.9 162.71 0 1 1 153.9 -162.71 154.07 162.89 0 0 1 -153.9 162.71z"/><path d="m256 123.94c-50.165 0-95.391 31.95-114.59 80.95-19.196 49-8.5822 105.4 26.89 142.9 35.472 37.504 88.817 48.726 135.16 28.43 46.346-20.296 76.565-68.112 76.565-121.15-0.06-72.39-55.55-131.05-124.02-131.13z"/></svg>
