<svg xmlns="http://www.w3.org/2000/svg" enable-background="new 0 0 2392.5 4226.6" viewBox="0 0 2392.5 4226.6" version="1.1" y="0px" x="0px"><g><path d="m1.8e3 20.1c-66.3 39.1-167 161-299 321l110 217c84.8-121 171-230 258-324 6.7-7.4 10.2-10.9 10.2-10.9-3.4 3.6-6.8 7.3-10.2 10.9-28.1 31-113 130-242 328 124-6.2 314-31.5 470-58.1 46.2-259-45.3-377-45.3-377s-116-188-253-108z"/><path d="m1.59e3 1.32e3c0.9-0.2 1.8-0.3 2.7-0.5l-17.4 1.9c-1.1 0.5-2 1-3.1 1.4h20z"/><path d="m1.47e3 1.73e3c-9.9 2.2-20 3.9-30.2 5.4 10-10 20-10 30-10z"/><path d="m1.43e3 1.74e3c0.1 0 0.1-0.1 0.2-0.1z"/><path d="m1.39e3 1.93e3c-15.4 2.8-31.3 5.5-47.6 8.3-0.1 0-0.2 0.1-0.3 0.1 8.2-1.2 16.3-2.4 24.3-3.8 20 0 30 0 30-10z"/><path opacity=".35" d="m1.39e3 1.93e3c-15.4 2.8-31.3 5.5-47.6 8.3-0.1 0-0.2 0.1-0.3 0.1 8.2-1.2 16.3-2.4 24.3-3.8 20 0 30 0 30-10z"/><path d="m1.43e3 1.74e3s-0.1 0-0.1 0.1c-0.1 0-0.1 0.1-0.2 0.1 2.6-0.3 5.1-0.8 7.6-1.1 10.3-1.5 20.4-3.3 30.2-5.4-10 0-20 0-40 10z"/><path opacity=".35" d="m1.43e3 1.74e3s-0.1 0-0.1 0.1c-0.1 0-0.1 0.1-0.2 0.1 2.6-0.3 5.1-0.8 7.6-1.1 10.3-1.5 20.4-3.3 30.2-5.4-10 0-20 0-40 10z"/><path d="m1.26e3 1.15e3c36.7-67.1 73.9-133 112-196 39-66.3 78.5-131 118-193 2.3-3.62 4.7-7.33 7-11 39.4-61 79.2-120 119-176l-130-220c-9.1 10.9-18.2 21.9-27.5 33.1-34.8 42.4-71 88.1-108 136-41.8 54.6-84.8 113-128 174-40.3 56.5-81.2 116-122 177-40.6 61.4-64.2 97.4-98.6 151l153 304c33.6-65 62.1-114 96.5-177z"/><path d="m540 2.9e3c-20.8 57.2-41.7 115-62.7 175-0.3 0.9-0.6 1.7-0.9 2.6-3 8.4-5.9 16.8-8.9 25.2-14.1 40.1-26.4 76.2-54.5 158 46.3 21.1 83.5 76.7 119 140-3.7-65.3-30.8-127-82.1-174 228 10.3 425-47.4 527-214 9.1-14.9 17.4-30.5 24.9-47.2-46.2 58.6-104 83.5-211 77.4-0.2 0.1-0.5 0.2-0.7 0.3 0.2-0.1 0.5-0.2 0.7-0.3 159-71.1 238-139 309-252 16.7-26.8 32.9-56.1 49.5-88.6-140 120-302 160-471 130l-127 13.9c-4 20-8 30-12 40z"/><path d="m599 2.61e3c27.5-71 55.8-143 84.8-215 27.8-69.4 56.4-139 85.6-209 29.2-70.2 59.1-140 89.6-211 31-71.6 62.7-143 94.9-214 31.9-70.3 64.4-140 97.4-210 11.9-25 23.9-49.9 35.9-74.7 20.8-42.9 41.8-85.4 63-128 1.1-2.3 2.3-4.5 3.5-6.8l-154-310c-2.6 4.2-5.1 8.4-7.7 12.6-36.6 59.8-73.1 121-109 184-36.2 63.1-71.7 127-106 193-29.3 55-57.9 110-85.7 166l-16.6 33.9c-34.3 70.5-65.2 139-93.2 204-31.7 74.2-59.6 145-84 212-16.1 44.2-30.7 86.9-44.1 128-11 35-21.5 70.1-31.4 105-23.5 82.3-28.2 149-44.8 231l149 304c20.9-55.8 36.1-89.1 58.1-146 6.1-15.9 12.3-32 18.5-48z"/><path d="m356 2.53e3c-19.8 99.8-33.9 199-41 298-0.2 3.5-0.6 6.9-0.8 10.4-49.3-79-181-156-181-155 94.5 137 166 273 177 406-50.6 10.4-120-4.6-200-34.1 83.5 76.7 146 97.9 171 104-76.7 4.8-157 57.5-237 118 118-48 213-67 281-51.6-108 300-217 640-325 1e3 33.2-9.8 53-32.1 64.1-62.3 19.3-64.9 147-491 348-1.05e3 5.7-15.9 11.5-31.9 17.3-48 1.6-4.5 3.3-9 4.9-13.4 21.2-58.7 43.2-119 65.9-180 5.2-13.9 10.4-27.8 15.6-41.8 0.1-0.3 0.2-0.6 0.3-0.8l-158-312c0-10-1 0-2 0z"/><path d="m1.18e3 1.37e3c-4.5 9.2-9 18.5-13.6 27.9-13.6 28.1-27.4 56.7-41.4 86-15.1 31.7-30.3 64.1-45.7 97.3-7.8 16.7-15.5 33.5-23.4 50.6-23.5 51.1-47.3 104-71.5 158-29.7 67-60 137-90.7 209-29.3 68.9-59 140-89.1 214-28.6 70-57.5 142-86.8 217-26.1 66.5-52.4 135-79 205-1.3 3.4-2.6 6.8-3.8 10.2-26.4 69.7-53 141-79.8 215-0.6 1.7 0.346-26-0.254-24.4l127-1.53c167-40 369-140 479-250 60.2-64.6 115-141 165-230 37.6-66.4 72.9-140 106-222 29.4-71.2 57.6-148 84.8-232-34.9 18.4-74.9 31.9-119 41.3-7.7 1.6-15.6 3.2-23.6 4.6s-16.1 2.7-24.3 3.8c0.1 0 0.2-0.1 0.3-0.1 142-54.5 231-160 296-289-37.3 25.4-97.9 58.7-170 74.7-9.9 2.2-20 3.9-30.2 5.4-2.6 0.4-5.1 0.8-7.6 1.1 0.1 0 0.1-0.1 0.2-0.1 0 0 0.1 0 0.1-0.1 49.2-20.6 90.7-43.6 127-70.8 7.7-5.8 15.2-11.8 22.4-18.1 11-9.5 21.4-19.5 31.4-30 6.4-6.7 12.6-13.6 18.6-20.8 14.1-16.8 27.3-34.9 39.7-54.6 3.8-6 7.5-12.1 11.2-18.4 4.7-9.1 9.2-18 13.6-26.8 19.8-39.8 35.6-75.3 48.2-106 6.3-15.6 11.8-30 16.5-43.4 1.9-5.3 3.7-10.5 5.4-15.5 5-15 9.1-28.3 12.3-40 4.8-17.5 7.7-31.4 9.3-41.5-4.8 3.8-10.3 7.6-16.5 11.3-42.8 25.6-116 48.8-175 59.7l117-12.8-117 12.8c-0.9 0.2-1.8 0.3-2.7 0.5-5.9 1-11.9 1.9-17.9 2.9 1.1-0.5 2-1 3.1-1.4l-399 43.8c-0.7 1.4-1.4 2.8-2.2 4.3z"/><path d="m1.63e3 581c-35.5 53.3-74.3 114-116 182-2.2 3.52-4.4 7.23-6.6 10.9-36 59.3-74.3 124-114 196-34.8 61.6-71 128-109 199-32.8 61.9-54.7 110-89.5 180l399-42.8c116-52.3 156-82.1 207-151 13.4-18.9 26.9-38.6 40.3-59 41-62.6 81.2-131 117-200 34.7-66.2 65.3-132 88.8-191 14.9-37.6 26.9-72.6 35.2-103 7.3-27.1 13-52.8 17.4-77.3-156 25.9-346 50.7-470 56.7z"/><path d="m1.37e3 1.94e3c-8 1.4-16.1 2.7-24.3 3.8h20z"/><path opacity=".35" d="m1.37e3 1.94e3c-8 1.4-16.1 2.7-24.3 3.8h20z"/><path d="m1.37e3 1.94e3c-8 1.4-16.1 2.7-24.3 3.8h20z"/><path d="m1.43e3 1.74e3c2.6-0.3 5.1-0.8 7.6-1.1 0-10 0 0-10 0z"/><path opacity=".35" d="m1.43e3 1.74e3c2.6-0.3 5.1-0.8 7.6-1.1 0-10 0 0-10 0z"/><path d="m1.43e3 1.74e3c2.6-0.3 5.1-0.8 7.6-1.1 0-10 0 0-10 0z"/><path d="m1.43e3 1.74e3s0.1 0 0.1-0.1z"/><path opacity=".35" d="m1.43e3 1.74e3s0.1 0 0.1-0.1z"/><path d="m1.43e3 1.74e3s0.1 0 0.1-0.1z"/></g></svg>
