<svg xmlns="http://www.w3.org/2000/svg" version="1.1" height="512" viewBox="0 0 512.033 512.033" width="512" enable-background="new 0 0 512.033 512.033"><path d="m186.73 103.7c11.285 27.165 38.088 46.321 69.289 46.321 41.355 0 75-33.645 75-75s-33.645-75-75-75c-40.958 0-74.332 33.007-74.97 73.815-86.24 30.578-150.03 112.84-150.03 212.18h30c0-80.917 51.002-153.86 125.71-182.32z"/><path d="m256.02 482.02c-45.084 0-88.191-15.379-122.87-43.57 18.789-23.005 23.139-56.68 6.829-84.93-20.677-35.814-66.636-48.131-102.45-27.452-35.897 20.725-48.18 66.55-27.451 102.45 20.049 34.725 63.76 47.532 99.311 29.158 40.807 35.114 92.483 54.342 146.63 54.342 33.736 0 66.182-7.288 96.437-21.66l-12.873-27.098c-26.203 12.447-54.317 18.758-83.565 18.758z"/><path d="m477.15 327.68c2.56-13.682 3.87-27.644 3.87-41.659 0-73.517-36.044-142.55-96.419-184.66l-17.162 24.605c52.336 36.506 83.581 96.34 83.581 160.06 0 10.384-0.835 20.728-2.455 30.914-29.712-4.598-60.594 9.026-76.507 36.586-20.726 35.898-8.451 81.725 27.452 102.45 35.915 20.737 81.734 8.431 102.45-27.451 20.233-35.045 9.005-79.459-24.811-100.84z"/></svg>
