<?xml version="1.0" encoding="iso-8859-1"?>
<!-- Generator: Adobe Illustrator 19.0.0, SVG Export Plug-In . SVG Version: 6.00 Build 0)  -->
<svg version="1.1" id="Layer_1" xmlns="http://www.w3.org/2000/svg" xmlns:xlink="http://www.w3.org/1999/xlink" x="0px" y="0px"
	 viewBox="0 0 512 512" style="enable-background:new 0 0 512 512;" xml:space="preserve">
<g>
	<g>
		<g>
			<path d="M469.333,149.333H42.667C19.135,149.333,0,168.469,0,192v128c0,23.531,19.135,42.667,42.667,42.667h426.667
				C492.865,362.667,512,343.531,512,320V192C512,168.469,492.865,149.333,469.333,149.333z M490.667,320
				c0,11.76-9.573,21.333-21.333,21.333H42.667c-11.76,0-21.333-9.573-21.333-21.333V192c0-11.76,9.573-21.333,21.333-21.333
				h426.667c11.76,0,21.333,9.573,21.333,21.333V320z"/>
			<path d="M132.948,234.667c-2.958-5.125-9.51-6.844-14.573-3.906l-11.708,6.76V224c0-5.896-4.771-10.667-10.667-10.667
				S85.333,218.104,85.333,224v13.521l-11.708-6.76c-5.094-2.938-11.625-1.219-14.573,3.906c-2.948,5.104-1.198,11.625,3.906,14.573
				L74.665,256l-11.707,6.76c-5.104,2.948-6.854,9.469-3.906,14.573c1.979,3.427,5.563,5.333,9.25,5.333
				c1.813,0,3.646-0.458,5.323-1.427l11.708-6.76V288c0,5.896,4.771,10.667,10.667,10.667s10.667-4.771,10.667-10.667v-13.521
				l11.708,6.76c1.677,0.969,3.51,1.427,5.323,1.427c3.688,0,7.271-1.906,9.25-5.333c2.948-5.104,1.198-11.625-3.906-14.573
				L117.335,256l11.707-6.76C134.146,246.292,135.896,239.771,132.948,234.667z"/>
			<path d="M239.615,234.667c-2.969-5.125-9.5-6.844-14.573-3.906l-11.708,6.76V224c0-5.896-4.771-10.667-10.667-10.667
				c-5.896,0-10.667,4.771-10.667,10.667v13.521l-11.708-6.76c-5.104-2.938-11.635-1.219-14.573,3.906
				c-2.948,5.104-1.198,11.625,3.906,14.573l11.707,6.76l-11.707,6.76c-5.104,2.948-6.854,9.469-3.906,14.573
				c1.979,3.427,5.563,5.333,9.25,5.333c1.813,0,3.646-0.458,5.323-1.427l11.708-6.76V288c0,5.896,4.771,10.667,10.667,10.667
				c5.896,0,10.667-4.771,10.667-10.667v-13.521l11.708,6.76c1.677,0.969,3.51,1.427,5.323,1.427c3.688,0,7.271-1.906,9.25-5.333
				c2.948-5.104,1.198-11.625-3.906-14.573L224.001,256l11.707-6.76C240.813,246.292,242.563,239.771,239.615,234.667z"/>
			<path d="M346.281,234.667c-2.958-5.125-9.51-6.844-14.573-3.906L320,237.521V224c0-5.896-4.771-10.667-10.667-10.667
				c-5.896,0-10.667,4.771-10.667,10.667v13.521l-11.708-6.76c-5.094-2.938-11.625-1.219-14.573,3.906
				c-2.948,5.104-1.198,11.625,3.906,14.573l11.707,6.76l-11.707,6.76c-5.104,2.948-6.854,9.469-3.906,14.573
				c1.979,3.427,5.563,5.333,9.25,5.333c1.813,0,3.646-0.458,5.323-1.427l11.708-6.76V288c0,5.896,4.771,10.667,10.667,10.667
				c5.896,0,10.667-4.771,10.667-10.667v-13.521l11.708,6.76c1.677,0.969,3.51,1.427,5.323,1.427c3.688,0,7.271-1.906,9.25-5.333
				c2.948-5.104,1.198-11.625-3.906-14.573L330.668,256l11.707-6.76C347.479,246.292,349.229,239.771,346.281,234.667z"/>
			<path d="M452.948,234.667c-2.948-5.125-9.5-6.844-14.573-3.906l-11.708,6.76V224c0-5.896-4.771-10.667-10.667-10.667
				c-5.896,0-10.667,4.771-10.667,10.667v13.521l-11.708-6.76c-5.115-2.938-11.615-1.219-14.573,3.906
				c-2.948,5.104-1.198,11.625,3.906,14.573l11.707,6.76l-11.707,6.76c-5.104,2.948-6.854,9.469-3.906,14.573
				c1.979,3.427,5.563,5.333,9.25,5.333c1.813,0,3.646-0.458,5.323-1.427l11.708-6.76V288c0,5.896,4.771,10.667,10.667,10.667
				c5.896,0,10.667-4.771,10.667-10.667v-13.521l11.708,6.76c1.677,0.969,3.51,1.427,5.323,1.427c3.688,0,7.271-1.906,9.25-5.333
				c2.948-5.104,1.198-11.625-3.906-14.573L437.335,256l11.707-6.76C454.146,246.292,455.896,239.771,452.948,234.667z"/>
		</g>
	</g>
</g>
<g>
</g>
<g>
</g>
<g>
</g>
<g>
</g>
<g>
</g>
<g>
</g>
<g>
</g>
<g>
</g>
<g>
</g>
<g>
</g>
<g>
</g>
<g>
</g>
<g>
</g>
<g>
</g>
<g>
</g>
</svg>
