<?xml version="1.0" encoding="iso-8859-1"?>
<!-- Generator: Adobe Illustrator 19.0.0, SVG Export Plug-In . SVG Version: 6.00 Build 0)  -->
<svg version="1.1" id="Capa_1" xmlns="http://www.w3.org/2000/svg" xmlns:xlink="http://www.w3.org/1999/xlink" x="0px" y="0px"
	 viewBox="0 0 512 512" style="enable-background:new 0 0 512 512;" xml:space="preserve">
<g>
	<g>
		<path d="M487.021,311.583l-106.948-53.474l-71.26-199.568c-7.958-22.25-29.167-37.208-52.813-37.208s-44.854,14.958-52.813,37.219
			l-71.26,199.557L24.979,311.583C9.563,319.292,0,334.771,0,352c0,17.208,9.563,32.698,24.979,40.417l165.625,82.813
			c20.208,10.094,42.813,15.438,65.396,15.438s45.188-5.344,65.396-15.438l165.625-82.813C502.438,384.698,512,369.208,512,352
			C512,334.771,502.438,319.292,487.021,311.583z M196.938,139.5c16.208,6.458,36.354,9.833,59.063,9.833s42.854-3.375,59.063-9.833
			l19.146,53.563c-15.5,12.615-44.583,20.271-78.208,20.271s-62.708-7.656-78.208-20.271L196.938,139.5z M256,384
			c-51.292,0-125.417-20.073-127.938-51.667l13.813-38.646C167.813,310.542,208.271,320,256,320s88.188-9.458,114.125-26.313
			l13.813,38.646C381.417,363.927,307.292,384,256,384z"/>
	</g>
</g>
<g>
</g>
<g>
</g>
<g>
</g>
<g>
</g>
<g>
</g>
<g>
</g>
<g>
</g>
<g>
</g>
<g>
</g>
<g>
</g>
<g>
</g>
<g>
</g>
<g>
</g>
<g>
</g>
<g>
</g>
</svg>
