<svg xmlns="http://www.w3.org/2000/svg" height="384pt" width="384pt" version="1.1" viewBox="0 0 384 384"><path d="m192 32v-32c-44.832 0-83.168 32.008-91.184 76.113l-18.168 99.887h-42.648v32h36.832l-17.129 94.168c-5.2461 28.879-30.352 49.832-59.703 49.832v32c44.832 0 83.168-32.008 91.184-76.113l18.168-99.887h34.648v-32h-28.832l17.129-94.168c5.2461-28.879 30.352-49.832 59.703-49.832z"/><path d="m208 96-12.801-9.6016c-1.1094 1.4805-27.199 37.059-27.199 105.6s26.09 104.12 27.199 105.6l25.594-19.203c-0.19922-0.26953-20.793-29.328-20.793-86.398 0-57.055 20.664-86.207 20.871-86.504z"/><path d="m331.2 105.6c0.20703 0.26953 20.801 29.328 20.801 86.398 0 57.055-20.664 86.207-20.871 86.504l12.871 9.4961 12.801 9.6016c1.1211-1.4883 27.199-37.059 27.199-105.6s-26.09-104.12-27.199-105.6z"/><path d="m291.06 142.59-19.062 26.215-19.062-26.215-25.875 18.828 25.152 34.586-25.152 34.586 25.875 18.828 19.062-26.215 19.062 26.215 25.875-18.828-25.152-34.586 25.152-34.586z"/></svg>
