<svg style="enable-background:new 0 0 578.305 578.305" xmlns="http://www.w3.org/2000/svg" height="578px" viewBox="0 0 578.305 578.305" width="578px" version="1.1" y="0px" x="0px"><path d="m533 160c0.532-26.5-5.29-53.3-10-79.7-1.63-9.09-4.93-17.9-8.18-26.5-2.45-6.49-9.68-10.6-16.3-9.2-4.31 0.918-8.18 1.81-11.9 3.05-39.3 12.9-75.7 31.9-111 53.8-4.7 2.95-11.5 4.02-17.2 3.6-13.6-0.992-27-4.37-40.6-5.01-33.6-1.59-67.1-0.569-100 5.25-4.63 0.808-10.7 0.012-14.6-2.47-38-24.5-77-45.6-122-57.4-6.8-1.8-13.7-0.9-15.4 1.8-1.04 1.63-1.97 3.32-2.48 5.13-4.82 16.9-10.5 33.8-13.3 51.1-3.34 20.7-6.55 41.9-4.97 62.6 0.998 13-2.58 20.9-9.67 30-23.8 30.5-34.5 65.6-35.1 104-0.563 32.9 3.79 65 13.8 96.5 15.4 48.2 45 84.4 89.7 108 36.7 19.4 76.7 26.8 118 28.3 36.9 1.29 73.9 0.196 111 0.404 37 0.208 73.5-3.09 109-14.6 35.4-11.5 66.1-30.2 89.9-59.5 34.4-42.3 45.1-92.2 47.3-145 1.68-40.4-6.54-78.3-30.2-111-9.58-13.4-15-24.9-14.6-42.6zm-71.3 309c-15.9 13.7-35.3 20.2-55.2 25-39 9.32-78.7 11.6-119 9.9-39.4 1.71-78.3-0.747-117-9.76-27-6-53-17-71.3-41-28.6-39-35.9-112 11.3-152 12.1-10.2 25.5-16.7 41.4-17.7 17.5-1.12 35.1-3.3 52.6-3.1 44.2 0.526 88.4 2.72 133 3.05 20.2 0.146 40.5-4.56 60.5-3.35 18.2 1.1 37.4 4.46 53.9 11.8 27.5 12.2 42.4 37 46.9 66 6.67 43.1-2.13 82.4-36.9 112z"/><ellipse cy="386" cx="390" rx="42.1" ry="56.3"/><ellipse cy="386" cx="189" rx="42.1" ry="56.3"/></svg>
