<svg xmlns="http://www.w3.org/2000/svg" version="1.1" viewBox="0 0 22 22"><path d="m11 0a11 11 0 0 0 -11 11 11 11 0 0 0 11 11 11 11 0 0 0 11 -11 11 11 0 0 0 -11 -11m-0.0083 4.8125c1.0505 0 1.9044 0.30112 2.5616 0.90475 0.65862 0.59262 0.98862 1.353 0.98862 2.2798 0 0.40288-0.11138 0.81125-0.33 1.2251-0.22 0.41662-0.42075 0.7095-0.5885 0.88962-0.16088 0.16638-0.39188 0.38638-0.693 0.6545l-0.08525 0.08388c-0.704 0.61462-1.0588 1.2292-1.0588 1.8439v0.66962h-1.6266v-0.78788c0-0.50188 0.11-0.93362 0.33-1.2911 0.21862-0.3685 0.60638-0.80025 1.1605-1.2911 0.31075-0.286 0.53075-0.48675 0.65725-0.6215 0.136-0.1447 0.27-0.3399 0.397-0.5847 0.139-0.2571 0.21-0.5238 0.21-0.7906 0-0.5142-0.174-0.9268-0.526-1.2402-0.33-0.3136-0.796-0.4703-1.397-0.4703-0.993 0-1.675 0.539-2.0436 1.6115l-1.4904-0.6036c0.242-0.638 0.66-1.2086 1.2485-1.7119 0.60088-0.51288 1.3612-0.77 2.2852-0.77m-0.02 10.096c0.3355 0 0.61325 0.11138 0.83325 0.341 0.231 0.21862 0.3465 0.484 0.3465 0.7975s-0.1155 0.5775-0.3465 0.80575c-0.22 0.22275-0.49775 0.3355-0.83325 0.3355-0.33412 0-0.61738-0.11275-0.84838-0.3355-0.21862-0.22825-0.32725-0.49225-0.32725-0.80575s0.10862-0.57888 0.32725-0.7975c0.231-0.22962 0.51425-0.341 0.84838-0.341" fill-rule="evenodd"/></svg>
