<svg style="enable-background:new 0 0 512.001 512.001" xmlns="http://www.w3.org/2000/svg" viewBox="0 0 512.001 512.001" version="1.1" y="0px" x="0px"><path d="m503.4 228.88l-229.72-209.31c-10.083-9.189-25.288-9.188-35.367-0.001l-229.71 209.32c-8.077 7.36-10.745 18.7-6.799 28.889 3.947 10.189 13.557 16.772 24.484 16.772h36.69v209.72c0 8.315 6.742 15.057 15.057 15.057h125.91c8.315 0 15.057-6.741 15.057-15.057v-127.34h74.002v127.34c0 8.315 6.742 15.057 15.057 15.057h125.91c8.315 0 15.057-6.741 15.057-15.057v-209.72h36.697c10.926 0 20.537-6.584 24.484-16.772 3.94-10.2 1.27-21.53-6.81-28.9z"/><path d="m445.09 42.73h-101.12l116.18 105.64v-90.58c0-8.319-6.74-15.06-15.06-15.06z"/></svg>
