<svg xmlns="http://www.w3.org/2000/svg" height="512pt" width="512pt" version="1.1" viewBox="-16 0 512 512"><path d="m15 422h180c-24.812 0-45-20.188-45-45 0.26953-1.5234-2.3633-20.355 16.594-47.449 8.7695-12.535 13.406-27.25 13.406-42.551 0-47.301-43.34-83.32-91.062-73.316-27.289 5.7188-50.062 27.703-56.664 54.703-5.6992 23.305-0.47266 47.148 14.336 65.414 14.246 17.566 13.359 42.992 13.391 43.199 0 24.812-20.188 45-45 45z"/><path d="m330 152v-152h-240v183.07c4.9805-0.71875 9.9883-1.0703 14.969-1.0703 57.91 0 105.03 47.109 105.03 105 0 21.488-6.5117 42.148-18.828 59.75-5.1719 7.3906-11.301 18.379-11.16 28.719 0.007812 0.55078 0.019531 1.2422 0 2.0625 0.27734 8.0195 6.8867 14.469 14.988 14.469h45v120h240v-360zm-180-60h150v30h-150zm0 90v-30h150v30zm180 270c-49.629 0-90-40.371-90-90s40.371-90 90-90 90 40.371 90 90-40.371 90-90 90zm90-210h-210v-30h210z"/><path d="m330 302c-33.078 0-60 26.922-60 60s26.922 60 60 60 60-26.922 60-60-26.922-60-60-60z"/><path d="m360 8.8594v113.14h111.29z"/><path d="m0 452h210v60h-210z"/></svg>
