<svg style="enable-background:new 0 0 511.997 511.997" xmlns="http://www.w3.org/2000/svg" viewBox="0 0 511.997 511.997" version="1.1" y="0px" x="0px"><path d="m212.26 390.24l-60.331 60.331c-25.012 25.012-65.517 25.012-90.508 0.005-24.996-24.996-24.996-65.505-0.005-90.496l120.68-120.68c24.991-24.992 65.5-24.992 90.491 0 8.331 8.331 21.839 8.331 30.17 0s8.331-21.839 0-30.17c-41.654-41.654-109.18-41.654-150.83 0l-120.68 120.68c-41.654 41.654-41.654 109.18 0 150.83 41.649 41.676 109.18 41.676 150.85 0l60.331-60.331c8.331-8.331 8.331-21.839 0-30.17s-21.84-8.33-30.17 0z"/><path d="m480.75 31.24c-41.654-41.654-109.2-41.654-150.85 0l-72.384 72.384c-8.331 8.331-8.331 21.839 0 30.17s21.839 8.331 30.17 0l72.384-72.384c24.991-24.992 65.521-24.992 90.513 0 24.991 24.991 24.991 65.5 0 90.491l-132.74 132.74c-24.992 24.992-65.5 24.992-90.491 0-8.331-8.331-21.839-8.331-30.17 0s-8.331 21.839 0 30.17c41.654 41.654 109.18 41.654 150.83 0l132.74-132.74c41.65-41.65 41.65-109.18 0-150.83z"/></svg>
