<svg style="enable-background:new 0 0 512 512" xmlns="http://www.w3.org/2000/svg" viewBox="0 0 512 512" version="1.1" y="0px" x="0px"><path d="m437.33 192h-32v-42.667c0-82.34-66.99-149.33-149.33-149.33s-149.33 66.99-149.33 149.33v42.67h-32c-5.899 0-10.67 4.77-10.67 10.67v266.67c0 23.52 19.135 42.66 42.67 42.66h298.67c23.52 0 42.66-19.14 42.66-42.67v-266.66c0-5.9-4.77-10.67-10.67-10.67zm-149.39 222.82c0.333 3.01-0.635 6.031-2.656 8.292-2.021 2.26-4.917 3.552-7.948 3.552h-42.667c-3.031 0-5.927-1.292-7.948-3.552s-2.99-5.281-2.656-8.292l6.729-60.51c-10.927-7.948-17.458-20.521-17.458-34.313 0-23.531 19.135-42.667 42.667-42.667s42.667 19.135 42.667 42.667c0 13.792-6.531 26.365-17.458 34.313l6.74 60.51zm53.39-222.82h-170.66v-42.667c0-47.05 38.28-85.33 85.33-85.33s85.333 38.281 85.333 85.333v42.67z"/></svg>
