<svg style="enable-background:new 0 0 512 512" xmlns="http://www.w3.org/2000/svg" version="1.1" y="0px" x="0px" viewBox="0 0 512 512"><path d="m506.23 214.81l-64.301-33.243 64.301-33.243c3.521-1.826 5.75-5.447 5.771-9.422s-2.146-7.627-5.646-9.505l-160-85.475c-3.104-1.649-6.792-1.669-9.917-0.063l-80.43 41.578-80.438-41.583c-3.125-1.607-6.854-1.586-9.917 0.063l-160 85.475c-3.5 1.878-5.667 5.53-5.646 9.505s2.25 7.596 5.771 9.422l64.301 33.243-64.295 33.25c-3.521 1.826-5.75 5.447-5.771 9.422s2.146 7.627 5.646 9.505l160 85.475c1.563 0.835 3.292 1.252 5.021 1.252 1.688 0 3.354-0.396 4.896-1.189l80.43-41.59 80.438 41.583c1.542 0.793 3.208 1.189 4.896 1.189 1.729 0 3.458-0.417 5.021-1.252l160-85.475c3.5-1.878 5.667-5.53 5.646-9.505-0.03-3.99-2.26-7.61-5.78-9.43zm-250.23 38.83l-139.4-72.071 139.4-72.08 139.4 72.071-139.4 72.08z"/><path d="m240.21 315.65c-3.146-1.93-7.125-2.066-10.438-0.365l-44.438 22.976c-9.146 4.737-20.604 4.654-29.729-0.209l-54.583-29.163c-3.292-1.753-7.271-1.669-10.5 0.271-3.229 1.93-5.188 5.405-5.188 9.161v66.245c0 3.944 2.167 7.575 5.646 9.432l138.67 74.081c1.563 0.835 3.292 1.252 5.021 1.252 1.896 0 3.792-0.511 5.479-1.523 3.229-1.93 5.188-5.405 5.188-9.161v-133.86c-0.01-3.72-1.94-7.19-5.13-9.13z"/><path d="m421.48 309.16c-3.229-1.941-7.229-2.024-10.5-0.271l-54.583 29.163c-9.125 4.873-20.604 4.956-29.729 0.209l-44.437-22.976c-3.313-1.711-7.292-1.565-10.438 0.365-3.188 1.941-5.125 5.405-5.125 9.13v133.87c0 3.756 1.958 7.231 5.188 9.161 1.688 1.012 3.583 1.523 5.479 1.523 1.729 0 3.458-0.417 5.021-1.252l138.67-74.07c3.479-1.857 5.646-5.488 5.646-9.432v-66.245c0-3.75-1.96-7.23-5.19-9.16z"/></svg>
