<?xml version="1.0" encoding="UTF-8" standalone="no"?>
<svg
   xmlns:dc="http://purl.org/dc/elements/1.1/"
   xmlns:cc="http://creativecommons.org/ns#"
   xmlns:rdf="http://www.w3.org/1999/02/22-rdf-syntax-ns#"
   xmlns:svg="http://www.w3.org/2000/svg"
   xmlns="http://www.w3.org/2000/svg"
   xmlns:sodipodi="http://sodipodi.sourceforge.net/DTD/sodipodi-0.dtd"
   xmlns:inkscape="http://www.inkscape.org/namespaces/inkscape"
   version="1.0"
   width="137px"
   height="130px"
   viewBox="0 0 1370 1300"
   preserveAspectRatio="xMidYMid meet"
   id="svg4554"
   sodipodi:docname="player_head_white.svg"
   inkscape:version="0.92.1 r15371">
  <metadata
     id="metadata4560">
    <rdf:RDF>
      <cc:Work
         rdf:about="">
        <dc:format>image/svg+xml</dc:format>
        <dc:type
           rdf:resource="http://purl.org/dc/dcmitype/StillImage" />
        <dc:title></dc:title>
      </cc:Work>
    </rdf:RDF>
  </metadata>
  <defs
     id="defs4558" />
  <sodipodi:namedview
     pagecolor="#ffffff"
     bordercolor="#666666"
     borderopacity="1"
     objecttolerance="10"
     gridtolerance="10"
     guidetolerance="10"
     inkscape:pageopacity="0"
     inkscape:pageshadow="2"
     inkscape:window-width="932"
     inkscape:window-height="434"
     id="namedview4556"
     showgrid="false"
     inkscape:pagecheckerboard="true"
     inkscape:zoom="0.34007452"
     inkscape:cx="-4.4488797"
     inkscape:cy="-89.564911"
     inkscape:window-x="2206"
     inkscape:window-y="152"
     inkscape:window-maximized="0"
     inkscape:current-layer="svg4554" />
  <g
     id="layer101"
     style="fill:#ffffff;stroke:none">
    <path
       d="m 390,1275 v -25 h -30 -30 v -30 -30 h -25 -25 v -55 -55 h -55 -55 v -50 -50 H 115 60 V 950 920 H 30 0 V 815 710 H 30 60 V 490 270 h 25 25 v -30 -30 h 30 30 v -25 -25 h 25 25 v -30 -30 h 30 30 V 75 50 h 50 50 V 25 0 h 305 305 v 25 25 h 55 55 v 25 25 h 25 25 v 30 30 h 25 25 v 25 25 h 30 30 v 30 30 h 25 25 v 220 220 h 30 30 v 105 105 h -30 -30 v 30 30 h -55 -55 v 50 50 h -55 -55 v 55 55 h -25 -25 v 30 30 h -30 -30 v 25 25 H 685 390 Z m 590,-60 v -25 h 30 30 v -25 -25 H 900 760 v -25 -25 h -25 -25 v -30 -30 h -25 -25 v 30 30 h -25 -25 v 25 25 H 470 330 v 25 25 h 30 30 v 25 25 H 685 980 Z M 550,1055 v -25 h 25 25 v -55 -55 h -25 -25 v 55 55 h -30 -30 v -85 -85 h 30 30 v -20 -20 h -80 -80 v 25 25 h -30 -30 v 25 25 h -25 -25 v 55 55 h 25 25 v 25 25 h 110 110 z m 490,0 v -25 h 25 25 v -55 -55 h -25 -25 v -25 -25 h -30 -30 v -25 -25 h -75 -75 v 20 20 h 25 25 v 85 85 h -25 -25 v 25 25 h 105 105 z M 820,975 v -55 h -25 -25 v 55 55 h 25 25 z M 220,945 V 920 H 195 170 V 840 760 H 140 110 V 735 710 H 85 60 v 105 105 h 55 55 v 25 25 h 25 25 z m 980,0 v -25 h -25 -25 v 25 25 h 25 25 z M 710,890 v -30 h 25 25 v -25 -25 h 30 30 v -25 -25 h -30 -30 v -25 -25 h -25 -25 v -30 -30 h -55 -55 v -25 -25 h -35 -35 v -30 -30 h -20 -20 v 30 30 h -25 -25 v 25 25 h -25 -25 v 25 25 h -25 -25 v 25 25 h 100 100 v 30 30 h 35 35 v 25 25 h 25 25 v 30 30 h 25 25 z m 600,-75 V 710 h -25 -25 v 25 25 h -25 -25 v 80 80 h 50 50 z M 330,785 v -25 h -50 -50 v 25 25 h 50 50 z"
       id="path4551"
       inkscape:connector-curvature="0" />
  </g>
</svg>
