<svg style="enable-background:new 0 0 448 448" xmlns="http://www.w3.org/2000/svg" viewBox="0 0 448 448" version="1.1" y="0px" x="0px"><path d="m394.67 213.33h-32v-85.33c0-23.573-19.093-42.667-42.667-42.667h-85.333v-32c0-29.44-23.9-53.333-53.34-53.333s-53.33 23.893-53.33 53.333v32h-85.333c-23.573 0-42.453 19.093-42.453 42.667l-0.107 81.067h31.893c31.787 0 57.6 25.813 57.6 57.6s-25.813 57.6-57.6 57.6h-31.893l-0.107 81.06c0 23.58 19.093 42.67 42.667 42.67h81.067v-32c0-31.787 25.813-57.6 57.6-57.6s57.6 25.813 57.6 57.6v32h81.07c23.573 0 42.667-19.093 42.667-42.667v-85.33h32c29.44 0 53.333-23.893 53.333-53.333s-23.89-53.34-53.33-53.34z"/></svg>
